<svg xmlns="http://www.w3.org/2000/svg" xmlns:xlink="http://www.w3.org/1999/xlink" width="1080" zoomAndPan="magnify" viewBox="0 0 810 1439.999935" height="1920" preserveAspectRatio="xMidYMid meet" version="1.0"><defs><clipPath id="d734428c26"><path d="M 229 475 L 581.671875 475 L 581.671875 839.734375 L 229 839.734375 Z M 229 475 " clip-rule="nonzero"/></clipPath></defs><g clip-path="url(#d734428c26)"><path fill="#8c52ff" d="M 551.296875 532.496094 C 531.132812 507.546875 502.894531 490.816406 472.203125 482.304688 C 436.179688 472.234375 397.1875 474.234375 361.089844 482.894531 C 325.582031 491.484375 292.523438 508.066406 267.246094 534.792969 C 241.746094 561.8125 228.480469 598.238281 229.960938 635.253906 C 231.371094 671.53125 245.898438 705.585938 266.355469 735.125 C 270.582031 741.269531 275.105469 747.191406 279.773438 752.96875 C 275.179688 777.175781 270.433594 801.460938 263.984375 825.222656 C 263.390625 826.628906 263.019531 828.109375 262.800781 829.589844 C 262.355469 831.441406 262.503906 833.441406 263.167969 835.144531 C 263.167969 835.21875 263.167969 835.21875 263.242188 835.292969 C 263.316406 835.441406 263.390625 835.664062 263.464844 835.8125 C 263.539062 836.03125 263.6875 836.179688 263.761719 836.328125 C 263.835938 836.402344 263.835938 836.476562 263.910156 836.550781 C 263.984375 836.625 264.058594 836.773438 264.132812 836.847656 C 265.46875 838.699219 267.542969 839.734375 270.359375 839.066406 C 271.917969 838.699219 273.324219 838.03125 274.585938 837.070312 C 289.632812 828.628906 303.640625 818.414062 319.207031 810.789062 C 322.617188 809.085938 326.472656 806.714844 330.253906 806.269531 C 334.183594 805.828125 338.703125 807.824219 342.558594 808.714844 C 351.898438 811.007812 361.460938 812.34375 371.023438 813.15625 C 389.554688 814.785156 408.457031 815.746094 427.0625 815.453125 C 445.890625 815.15625 464.496094 812.710938 482.0625 805.53125 C 549.8125 777.695312 580.132812 697.148438 581.242188 628.8125 C 581.613281 594.609375 573.164062 559.519531 551.296875 532.496094 Z M 560.933594 642.511719 C 560.636719 651.988281 559.96875 658.574219 558.414062 668.347656 C 557.671875 672.9375 556.78125 677.601562 555.820312 682.117188 C 555.375 684.191406 554.855469 686.335938 554.335938 688.410156 C 554.039062 689.667969 553.742188 690.929688 553.371094 692.1875 C 553.296875 692.554688 552.410156 695.8125 552.410156 695.738281 C 549.816406 704.625 546.628906 713.359375 542.847656 721.800781 C 542.773438 722.023438 541.511719 724.539062 541.808594 724.09375 C 541.585938 724.539062 541.363281 724.984375 541.140625 725.425781 C 539.957031 727.722656 538.769531 730.015625 537.507812 732.238281 C 536.472656 734.089844 535.359375 735.941406 534.246094 737.789062 C 533.582031 738.902344 532.914062 739.9375 532.171875 741.046875 C 531.949219 741.417969 530.988281 742.75 530.765625 743.121094 C 528.539062 746.230469 526.167969 749.265625 523.648438 752.226562 C 522.386719 753.707031 521.128906 755.1875 519.792969 756.59375 C 519.644531 756.742188 518.609375 757.855469 518.238281 758.222656 C 517.496094 758.964844 516.753906 759.703125 516.011719 760.371094 C 513.046875 763.183594 510.007812 765.847656 506.820312 768.367188 C 505.933594 769.105469 504.96875 769.773438 504.078125 770.511719 C 504.003906 770.585938 502.375 771.699219 502.226562 771.847656 C 500.519531 773.03125 498.742188 774.140625 497.035156 775.175781 C 489.328125 779.765625 482.878906 782.65625 474.949219 785.023438 C 455.601562 790.796875 435.289062 790.722656 415.277344 789.910156 C 394.816406 789.09375 374.0625 788.652344 354.046875 783.988281 C 349.378906 782.949219 344.707031 781.027344 339.890625 780.953125 C 333.664062 780.878906 327.808594 783.765625 322.246094 786.355469 C 313.425781 790.355469 305.125 795.386719 296.898438 800.496094 C 293.5625 802.570312 290.300781 804.644531 286.964844 806.714844 C 291.484375 788.207031 295.042969 769.402344 298.75 750.671875 C 299.269531 748.15625 299.863281 745.5625 300.234375 743.046875 C 301.046875 738.160156 299.640625 735.347656 296.75 731.71875 C 293.785156 728.019531 290.894531 724.316406 288.074219 720.542969 C 276.957031 705.363281 267.097656 689.003906 260.277344 671.457031 C 253.3125 653.394531 249.457031 634.957031 249.902344 615.785156 C 249.976562 611.046875 250.199219 608.601562 250.714844 604.605469 C 251.382812 599.71875 252.273438 594.90625 253.535156 590.09375 C 253.609375 589.796875 254.199219 587.726562 254.273438 587.652344 C 254.570312 586.835938 254.792969 586.023438 255.089844 585.207031 C 255.90625 582.765625 256.867188 580.324219 257.90625 577.953125 C 258.203125 577.214844 258.574219 576.546875 258.871094 575.804688 C 258.945312 575.660156 259.019531 575.511719 259.09375 575.363281 C 259.167969 575.214844 259.242188 575.066406 259.316406 574.917969 C 260.425781 572.84375 261.464844 570.773438 262.652344 568.699219 C 263.835938 566.699219 265.097656 564.777344 266.355469 562.777344 C 266.355469 562.777344 266.355469 562.851562 266.28125 562.851562 L 266.355469 562.777344 C 266.355469 562.777344 266.355469 562.703125 266.429688 562.703125 C 266.578125 562.40625 267.023438 561.960938 267.171875 561.738281 C 267.617188 561.148438 267.988281 560.554688 268.433594 560.039062 C 271.175781 556.410156 274.066406 553.003906 277.179688 549.671875 C 277.402344 549.449219 277.921875 548.933594 278.21875 548.636719 C 278.882812 547.96875 279.550781 547.378906 280.21875 546.710938 C 281.628906 545.378906 283.109375 544.046875 284.59375 542.714844 C 288 539.753906 291.558594 536.9375 295.191406 534.273438 C 295.488281 534.050781 296.304688 533.535156 296.527344 533.386719 C 297.339844 532.867188 298.15625 532.273438 298.972656 531.757812 C 300.972656 530.425781 303.050781 529.164062 305.125 527.980469 C 309.5 525.464844 313.945312 523.09375 318.542969 520.949219 C 327.140625 516.875 335.738281 513.765625 345.003906 511.027344 C 383.328125 499.699219 425.28125 497.035156 464.050781 508.140625 C 495.628906 517.171875 524.980469 537.234375 542.550781 565.367188 C 551.816406 580.175781 557.671875 598.3125 559.746094 614.820312 C 560.859375 624.003906 561.230469 633.332031 560.933594 642.511719 Z M 495.851562 650.503906 C 471.539062 653.613281 445.742188 655.242188 420.910156 656.355469 C 420.984375 666.421875 421.132812 677.15625 421.28125 686.410156 C 421.429688 701.515625 421.132812 716.246094 420.167969 731.351562 C 419.722656 738.085938 395.335938 734.015625 394.816406 726.761719 C 394.296875 719.652344 394.59375 712.398438 394.445312 705.214844 C 394.296875 698.554688 394.222656 691.816406 394.222656 685.152344 C 394.296875 675.898438 394.445312 666.644531 394.667969 657.390625 C 386.144531 657.6875 377.546875 657.984375 369.019531 658.351562 C 355.085938 658.871094 337.960938 658.871094 326.695312 658.28125 C 321.507812 657.390625 319.132812 652.949219 318.617188 647.914062 C 318.171875 644.066406 319.429688 634.441406 324.398438 633.109375 C 338.332031 629.40625 352.566406 631.035156 366.945312 630.292969 C 376.507812 629.851562 385.996094 629.332031 395.558594 628.886719 C 395.78125 621.335938 396.003906 613.859375 396.152344 606.308594 C 396.300781 598.980469 396.597656 591.648438 396.820312 584.320312 C 397.113281 574.84375 397.1875 565.070312 399.5625 555.890625 C 400.671875 551.523438 404.675781 551.078125 409.199219 551.746094 C 414.164062 552.484375 418.019531 552.707031 419.054688 557.003906 C 420.984375 565.292969 421.355469 577.066406 421.503906 585.503906 C 421.652344 592.761719 421.726562 600.015625 421.726562 607.269531 C 421.726562 614.601562 421.503906 621.039062 421.28125 627.554688 C 445.445312 626.445312 469.535156 625.410156 493.628906 623.929688 C 500.742188 623.484375 502.003906 629.554688 502.300781 634.886719 C 502.597656 640.585938 500.371094 649.914062 495.851562 650.503906 Z M 495.851562 650.503906 " fill-opacity="1" fill-rule="nonzero"/></g></svg>