<svg xmlns="http://www.w3.org/2000/svg" xmlns:xlink="http://www.w3.org/1999/xlink" width="500" zoomAndPan="magnify" viewBox="0 0 375 374.999991" height="500" preserveAspectRatio="xMidYMid meet" version="1.0"><defs><clipPath id="d2cb68b3cb"><path d="M 90 127 L 137 127 L 137 176.296875 L 90 176.296875 Z M 90 127 " clip-rule="nonzero"/></clipPath><clipPath id="80f8902ede"><path d="M 135 120.046875 L 217 120.046875 L 217 171 L 135 171 Z M 135 120.046875 " clip-rule="nonzero"/></clipPath></defs><g clip-path="url(#d2cb68b3cb)"><path fill="#8c52ff" d="M 90.539062 175.066406 L 129.335938 127.4375 L 136.351562 134.417969 L 107.046875 169.726562 L 107.871094 176.296875 Z M 90.539062 175.066406 " fill-opacity="1" fill-rule="evenodd"/></g><path fill="#8c52ff" d="M 284.105469 174.65625 L 258.515625 143.039062 L 253.5625 147.554688 L 273.375 170.960938 L 272.550781 175.476562 Z M 284.105469 174.65625 " fill-opacity="1" fill-rule="evenodd"/><path fill="#0cc0df" d="M 254.390625 138.113281 L 224.671875 174.242188 L 178.449219 173.832031 L 203.625 147.964844 Z M 254.390625 138.113281 " fill-opacity="1" fill-rule="evenodd"/><g clip-path="url(#80f8902ede)"><path fill="#ff66c4" d="M 186.703125 137.292969 L 180.097656 134.417969 L 180.097656 129.078125 L 135.113281 120.457031 L 175.972656 170.136719 L 201.148438 143.859375 L 216.832031 140.988281 L 211.054688 135.238281 L 192.894531 131.542969 L 192.894531 120.046875 L 186.703125 120.046875 Z M 186.703125 137.292969 " fill-opacity="1" fill-rule="evenodd"/></g><path fill="#8c52ff" d="M 139.652344 166.851562 L 139.652344 157.410156 L 130.984375 157.410156 L 130.984375 166.851562 Z M 130.984375 155.769531 L 139.652344 155.769531 L 139.652344 146.734375 C 135.113281 147.144531 131.398438 150.839844 130.984375 155.769531 Z M 141.714844 155.769531 L 150.382812 155.769531 C 149.96875 151.25 146.257812 147.144531 141.714844 146.734375 Z M 150.382812 157.410156 L 141.714844 157.410156 L 141.714844 166.851562 L 150.382812 166.851562 Z M 150.382812 157.410156 " fill-opacity="1" fill-rule="evenodd"/><path fill="#8c52ff" d="M 249.847656 168.496094 L 249.847656 162.746094 L 244.484375 162.746094 L 244.484375 168.496094 Z M 244.484375 161.925781 L 249.847656 161.925781 L 249.847656 156.589844 C 246.960938 157 244.898438 159.050781 244.484375 161.925781 Z M 250.675781 161.925781 L 256.039062 161.925781 C 255.628906 159.050781 253.5625 157 250.675781 156.589844 Z M 256.039062 162.746094 L 250.675781 162.746094 L 250.675781 168.496094 L 256.039062 168.496094 Z M 256.039062 162.746094 " fill-opacity="1" fill-rule="evenodd"/></svg>